<mxfile host="Electron" modified="2024-05-21T07:58:28.802Z" agent="Mozilla/5.0 (Macintosh; Intel Mac OS X 10_15_7) AppleWebKit/537.36 (KHTML, like Gecko) draw.io/22.1.18 Chrome/120.0.6099.199 Electron/28.1.2 Safari/537.36" etag="rNf_tEjlVNhGz6z0W1ek" version="22.1.18" type="device">
  <diagram name="第 1 页" id="cIrNhAaRVo3fqblxRnJS">
    <mxGraphModel dx="533" dy="349" grid="1" gridSize="10" guides="1" tooltips="1" connect="1" arrows="1" fold="1" page="1" pageScale="1" pageWidth="827" pageHeight="1169" math="0" shadow="0">
      <root>
        <mxCell id="0" />
        <mxCell id="1" parent="0" />
        <mxCell id="k4Zqk2MXU6BnERTlMWM5-37" value="" style="rounded=1;whiteSpace=wrap;html=1;fillColor=none;" parent="1" vertex="1">
          <mxGeometry x="274" y="175" width="80" height="360" as="geometry" />
        </mxCell>
        <mxCell id="k4Zqk2MXU6BnERTlMWM5-1" value="" style="ellipse;whiteSpace=wrap;html=1;aspect=fixed;fillColor=#CCFFCC;strokeColor=#000000;" parent="1" vertex="1">
          <mxGeometry x="150" y="210" width="30" height="30" as="geometry" />
        </mxCell>
        <mxCell id="k4Zqk2MXU6BnERTlMWM5-2" value="" style="rounded=1;whiteSpace=wrap;html=1;fillColor=#FFCCFF;strokeColor=#000000;" parent="1" vertex="1">
          <mxGeometry x="150" y="250" width="30" height="70" as="geometry" />
        </mxCell>
        <mxCell id="k4Zqk2MXU6BnERTlMWM5-5" value="" style="ellipse;whiteSpace=wrap;html=1;aspect=fixed;fillColor=#CCFFCC;strokeColor=#000000;" parent="1" vertex="1">
          <mxGeometry x="300" y="210" width="30" height="30" as="geometry" />
        </mxCell>
        <mxCell id="k4Zqk2MXU6BnERTlMWM5-6" value="" style="rounded=1;whiteSpace=wrap;html=1;fillColor=#E5CCFF;strokeColor=#000000;" parent="1" vertex="1">
          <mxGeometry x="300" y="250" width="30" height="70" as="geometry" />
        </mxCell>
        <mxCell id="k4Zqk2MXU6BnERTlMWM5-9" value="" style="ellipse;whiteSpace=wrap;html=1;aspect=fixed;fillColor=#CCFFCC;strokeColor=#000000;" parent="1" vertex="1">
          <mxGeometry x="450" y="210" width="30" height="30" as="geometry" />
        </mxCell>
        <mxCell id="k4Zqk2MXU6BnERTlMWM5-10" value="" style="rounded=1;whiteSpace=wrap;html=1;fillColor=#CCCCFF;strokeColor=#000000;" parent="1" vertex="1">
          <mxGeometry x="450" y="250" width="30" height="70" as="geometry" />
        </mxCell>
        <mxCell id="k4Zqk2MXU6BnERTlMWM5-13" value="" style="ellipse;whiteSpace=wrap;html=1;aspect=fixed;fillColor=#CCFFCC;strokeColor=#000000;" parent="1" vertex="1">
          <mxGeometry x="600" y="210" width="30" height="30" as="geometry" />
        </mxCell>
        <mxCell id="k4Zqk2MXU6BnERTlMWM5-14" value="" style="rounded=1;whiteSpace=wrap;html=1;fillColor=#99CCFF;strokeColor=#000000;" parent="1" vertex="1">
          <mxGeometry x="600" y="250" width="30" height="70" as="geometry" />
        </mxCell>
        <mxCell id="k4Zqk2MXU6BnERTlMWM5-17" value="" style="ellipse;whiteSpace=wrap;html=1;aspect=fixed;fillColor=#FFCCE6;strokeColor=#000000;" parent="1" vertex="1">
          <mxGeometry x="150" y="410" width="30" height="30" as="geometry" />
        </mxCell>
        <mxCell id="k4Zqk2MXU6BnERTlMWM5-18" value="" style="rounded=1;whiteSpace=wrap;html=1;fillColor=#DBFEFF;strokeColor=#000000;" parent="1" vertex="1">
          <mxGeometry x="150" y="450" width="30" height="70" as="geometry" />
        </mxCell>
        <mxCell id="k4Zqk2MXU6BnERTlMWM5-21" value="" style="ellipse;whiteSpace=wrap;html=1;aspect=fixed;fillColor=#FFCCE6;strokeColor=#000000;" parent="1" vertex="1">
          <mxGeometry x="300" y="410" width="30" height="30" as="geometry" />
        </mxCell>
        <mxCell id="k4Zqk2MXU6BnERTlMWM5-22" value="" style="rounded=1;whiteSpace=wrap;html=1;fillColor=#99FFFF;strokeColor=#000000;" parent="1" vertex="1">
          <mxGeometry x="300" y="450" width="30" height="70" as="geometry" />
        </mxCell>
        <mxCell id="k4Zqk2MXU6BnERTlMWM5-25" value="" style="ellipse;whiteSpace=wrap;html=1;aspect=fixed;fillColor=#CCFFCC;strokeColor=#000000;" parent="1" vertex="1">
          <mxGeometry x="399" y="410" width="30" height="30" as="geometry" />
        </mxCell>
        <mxCell id="k4Zqk2MXU6BnERTlMWM5-26" value="" style="rounded=1;whiteSpace=wrap;html=1;fillColor=#E5CCFF;strokeColor=#000000;" parent="1" vertex="1">
          <mxGeometry x="399" y="450" width="30" height="70" as="geometry" />
        </mxCell>
        <mxCell id="k4Zqk2MXU6BnERTlMWM5-29" value="" style="ellipse;whiteSpace=wrap;html=1;aspect=fixed;fillColor=#CCFFFF;strokeColor=#000000;" parent="1" vertex="1">
          <mxGeometry x="540" y="410" width="30" height="30" as="geometry" />
        </mxCell>
        <mxCell id="k4Zqk2MXU6BnERTlMWM5-30" value="" style="rounded=1;whiteSpace=wrap;html=1;fillColor=#E5CCFF;strokeColor=#000000;" parent="1" vertex="1">
          <mxGeometry x="540" y="450" width="30" height="70" as="geometry" />
        </mxCell>
        <mxCell id="k4Zqk2MXU6BnERTlMWM5-33" value="" style="ellipse;whiteSpace=wrap;html=1;aspect=fixed;fillColor=#CCFFFF;strokeColor=#000000;" parent="1" vertex="1">
          <mxGeometry x="688" y="410" width="30" height="30" as="geometry" />
        </mxCell>
        <mxCell id="k4Zqk2MXU6BnERTlMWM5-34" value="" style="rounded=1;whiteSpace=wrap;html=1;fillColor=#CCFFE6;strokeColor=#000000;" parent="1" vertex="1">
          <mxGeometry x="688" y="450" width="30" height="70" as="geometry" />
        </mxCell>
        <mxCell id="k4Zqk2MXU6BnERTlMWM5-38" value="" style="endArrow=classicThin;html=1;rounded=0;endFill=1;dashed=1;strokeWidth=1.5;" parent="1" edge="1">
          <mxGeometry width="50" height="50" relative="1" as="geometry">
            <mxPoint x="190" y="280" as="sourcePoint" />
            <mxPoint x="290" y="280" as="targetPoint" />
          </mxGeometry>
        </mxCell>
        <mxCell id="k4Zqk2MXU6BnERTlMWM5-39" value="" style="endArrow=none;dashed=1;html=1;strokeWidth=1.5;rounded=0;edgeStyle=elbowEdgeStyle;" parent="1" edge="1">
          <mxGeometry width="50" height="50" relative="1" as="geometry">
            <mxPoint x="186" y="224" as="sourcePoint" />
            <mxPoint x="200" y="280" as="targetPoint" />
            <Array as="points">
              <mxPoint x="200" y="250" />
            </Array>
          </mxGeometry>
        </mxCell>
        <mxCell id="k4Zqk2MXU6BnERTlMWM5-48" value="" style="endArrow=classic;html=1;rounded=0;entryX=1;entryY=0.5;entryDx=0;entryDy=0;exitX=1;exitY=0.5;exitDx=0;exitDy=0;" parent="1" edge="1">
          <mxGeometry width="50" height="50" relative="1" as="geometry">
            <mxPoint x="435" y="424.5699999999999" as="sourcePoint" />
            <mxPoint x="534" y="424.9999999999999" as="targetPoint" />
          </mxGeometry>
        </mxCell>
        <mxCell id="k4Zqk2MXU6BnERTlMWM5-49" value="&lt;span style=&quot;font-size: 15px;&quot;&gt;探索&lt;/span&gt;" style="edgeLabel;html=1;align=center;verticalAlign=middle;resizable=0;points=[];" parent="k4Zqk2MXU6BnERTlMWM5-48" vertex="1" connectable="0">
          <mxGeometry x="-0.1568" relative="1" as="geometry">
            <mxPoint x="3" y="-15" as="offset" />
          </mxGeometry>
        </mxCell>
        <mxCell id="k4Zqk2MXU6BnERTlMWM5-50" value="" style="endArrow=classic;html=1;rounded=0;entryX=0.5;entryY=0;entryDx=0;entryDy=0;exitX=0.7;exitY=0.347;exitDx=0;exitDy=0;exitPerimeter=0;" parent="1" edge="1">
          <mxGeometry width="50" height="50" relative="1" as="geometry">
            <mxPoint x="330" y="302.91999999999996" as="sourcePoint" />
            <mxPoint x="414" y="389.9999999999999" as="targetPoint" />
            <Array as="points">
              <mxPoint x="414" y="303" />
            </Array>
          </mxGeometry>
        </mxCell>
        <mxCell id="k4Zqk2MXU6BnERTlMWM5-51" value="&lt;span style=&quot;font-size: 15px;&quot;&gt;利用&lt;/span&gt;" style="edgeLabel;html=1;align=center;verticalAlign=middle;resizable=0;points=[];" parent="k4Zqk2MXU6BnERTlMWM5-50" vertex="1" connectable="0">
          <mxGeometry x="0.1098" y="-1" relative="1" as="geometry">
            <mxPoint x="-24" y="6" as="offset" />
          </mxGeometry>
        </mxCell>
        <mxCell id="k4Zqk2MXU6BnERTlMWM5-52" value="&lt;span style=&quot;font-size: 15px;&quot;&gt;性能&lt;/span&gt;" style="text;html=1;align=center;verticalAlign=middle;whiteSpace=wrap;rounded=0;" parent="1" vertex="1">
          <mxGeometry x="50" y="181" width="60" height="30" as="geometry" />
        </mxCell>
        <mxCell id="k4Zqk2MXU6BnERTlMWM5-53" value="&lt;span style=&quot;font-size: 15px;&quot;&gt;超参数&lt;/span&gt;" style="text;html=1;align=center;verticalAlign=middle;whiteSpace=wrap;rounded=0;" parent="1" vertex="1">
          <mxGeometry x="50" y="210" width="60" height="30" as="geometry" />
        </mxCell>
        <mxCell id="k4Zqk2MXU6BnERTlMWM5-54" value="&lt;span style=&quot;font-size: 15px;&quot;&gt;模型权重&lt;/span&gt;" style="text;html=1;align=center;verticalAlign=middle;whiteSpace=wrap;rounded=0;" parent="1" vertex="1">
          <mxGeometry x="35" y="266" width="75" height="30" as="geometry" />
        </mxCell>
        <mxCell id="my3dYqXKZGJDG_tUbXVl-1" value="" style="endArrow=classic;html=1;rounded=0;exitX=1;exitY=0.5;exitDx=0;exitDy=0;entryX=-0.113;entryY=0.506;entryDx=0;entryDy=0;entryPerimeter=0;" edge="1" parent="1" source="k4Zqk2MXU6BnERTlMWM5-53" target="k4Zqk2MXU6BnERTlMWM5-1">
          <mxGeometry width="50" height="50" relative="1" as="geometry">
            <mxPoint x="60" y="180" as="sourcePoint" />
            <mxPoint x="110" y="130" as="targetPoint" />
          </mxGeometry>
        </mxCell>
        <mxCell id="my3dYqXKZGJDG_tUbXVl-2" value="" style="endArrow=classic;html=1;rounded=0;exitX=1;exitY=0.5;exitDx=0;exitDy=0;entryX=-0.149;entryY=0.435;entryDx=0;entryDy=0;entryPerimeter=0;" edge="1" parent="1" source="k4Zqk2MXU6BnERTlMWM5-54" target="k4Zqk2MXU6BnERTlMWM5-2">
          <mxGeometry width="50" height="50" relative="1" as="geometry">
            <mxPoint x="120" y="235" as="sourcePoint" />
            <mxPoint x="157" y="235" as="targetPoint" />
          </mxGeometry>
        </mxCell>
        <mxCell id="my3dYqXKZGJDG_tUbXVl-3" value="10" style="text;html=1;strokeColor=none;fillColor=none;align=center;verticalAlign=middle;whiteSpace=wrap;rounded=0;" vertex="1" parent="1">
          <mxGeometry x="147.5" y="181" width="35" height="30" as="geometry" />
        </mxCell>
        <mxCell id="my3dYqXKZGJDG_tUbXVl-4" value="" style="endArrow=classic;html=1;rounded=0;exitX=1;exitY=0.5;exitDx=0;exitDy=0;" edge="1" parent="1" source="k4Zqk2MXU6BnERTlMWM5-52" target="my3dYqXKZGJDG_tUbXVl-3">
          <mxGeometry width="50" height="50" relative="1" as="geometry">
            <mxPoint x="-30" y="265" as="sourcePoint" />
            <mxPoint x="20" y="215" as="targetPoint" />
          </mxGeometry>
        </mxCell>
        <mxCell id="my3dYqXKZGJDG_tUbXVl-5" value="" style="endArrow=none;dashed=1;html=1;strokeWidth=1.5;rounded=0;edgeStyle=elbowEdgeStyle;" edge="1" parent="1">
          <mxGeometry width="50" height="50" relative="1" as="geometry">
            <mxPoint x="333" y="224" as="sourcePoint" />
            <mxPoint x="347" y="280" as="targetPoint" />
            <Array as="points">
              <mxPoint x="347" y="250" />
            </Array>
          </mxGeometry>
        </mxCell>
        <mxCell id="my3dYqXKZGJDG_tUbXVl-6" value="" style="endArrow=classicThin;html=1;rounded=0;endFill=1;dashed=1;strokeWidth=1.5;" edge="1" parent="1">
          <mxGeometry width="50" height="50" relative="1" as="geometry">
            <mxPoint x="340" y="280" as="sourcePoint" />
            <mxPoint x="440" y="280" as="targetPoint" />
          </mxGeometry>
        </mxCell>
        <mxCell id="my3dYqXKZGJDG_tUbXVl-7" value="50" style="text;html=1;strokeColor=none;fillColor=none;align=center;verticalAlign=middle;whiteSpace=wrap;rounded=0;" vertex="1" parent="1">
          <mxGeometry x="297.5" y="181" width="35" height="30" as="geometry" />
        </mxCell>
        <mxCell id="my3dYqXKZGJDG_tUbXVl-8" value="55" style="text;html=1;strokeColor=none;fillColor=none;align=center;verticalAlign=middle;whiteSpace=wrap;rounded=0;" vertex="1" parent="1">
          <mxGeometry x="447.5" y="179" width="35" height="30" as="geometry" />
        </mxCell>
        <mxCell id="my3dYqXKZGJDG_tUbXVl-9" value="" style="endArrow=none;dashed=1;html=1;strokeWidth=1.5;rounded=0;edgeStyle=elbowEdgeStyle;" edge="1" parent="1">
          <mxGeometry width="50" height="50" relative="1" as="geometry">
            <mxPoint x="484" y="223.38" as="sourcePoint" />
            <mxPoint x="498" y="279.38" as="targetPoint" />
            <Array as="points">
              <mxPoint x="498" y="249.38" />
            </Array>
          </mxGeometry>
        </mxCell>
        <mxCell id="my3dYqXKZGJDG_tUbXVl-10" value="" style="endArrow=classicThin;html=1;rounded=0;endFill=1;dashed=1;strokeWidth=1.5;" edge="1" parent="1">
          <mxGeometry width="50" height="50" relative="1" as="geometry">
            <mxPoint x="491" y="279.38" as="sourcePoint" />
            <mxPoint x="591" y="279.38" as="targetPoint" />
          </mxGeometry>
        </mxCell>
        <mxCell id="my3dYqXKZGJDG_tUbXVl-11" value="70" style="text;html=1;strokeColor=none;fillColor=none;align=center;verticalAlign=middle;whiteSpace=wrap;rounded=0;" vertex="1" parent="1">
          <mxGeometry x="597.5" y="179" width="35" height="30" as="geometry" />
        </mxCell>
        <mxCell id="my3dYqXKZGJDG_tUbXVl-12" value="8" style="text;html=1;strokeColor=none;fillColor=none;align=center;verticalAlign=middle;whiteSpace=wrap;rounded=0;" vertex="1" parent="1">
          <mxGeometry x="147.5" y="380" width="35" height="30" as="geometry" />
        </mxCell>
        <mxCell id="my3dYqXKZGJDG_tUbXVl-13" value="30" style="text;html=1;strokeColor=none;fillColor=none;align=center;verticalAlign=middle;whiteSpace=wrap;rounded=0;" vertex="1" parent="1">
          <mxGeometry x="296.5" y="382" width="35" height="30" as="geometry" />
        </mxCell>
        <mxCell id="my3dYqXKZGJDG_tUbXVl-14" value="85" style="text;html=1;strokeColor=none;fillColor=none;align=center;verticalAlign=middle;whiteSpace=wrap;rounded=0;" vertex="1" parent="1">
          <mxGeometry x="685.5" y="380" width="35" height="30" as="geometry" />
        </mxCell>
        <mxCell id="my3dYqXKZGJDG_tUbXVl-15" value="" style="endArrow=none;dashed=1;html=1;strokeWidth=1.5;rounded=0;edgeStyle=elbowEdgeStyle;" edge="1" parent="1">
          <mxGeometry width="50" height="50" relative="1" as="geometry">
            <mxPoint x="574" y="425" as="sourcePoint" />
            <mxPoint x="588" y="481" as="targetPoint" />
            <Array as="points">
              <mxPoint x="588" y="451" />
            </Array>
          </mxGeometry>
        </mxCell>
        <mxCell id="my3dYqXKZGJDG_tUbXVl-16" value="" style="endArrow=classicThin;html=1;rounded=0;endFill=1;dashed=1;strokeWidth=1.5;" edge="1" parent="1">
          <mxGeometry width="50" height="50" relative="1" as="geometry">
            <mxPoint x="581" y="481" as="sourcePoint" />
            <mxPoint x="681" y="481" as="targetPoint" />
          </mxGeometry>
        </mxCell>
        <mxCell id="my3dYqXKZGJDG_tUbXVl-17" value="50" style="text;html=1;strokeColor=none;fillColor=none;align=center;verticalAlign=middle;whiteSpace=wrap;rounded=0;" vertex="1" parent="1">
          <mxGeometry x="397" y="382" width="35" height="30" as="geometry" />
        </mxCell>
        <mxCell id="my3dYqXKZGJDG_tUbXVl-18" value="55" style="text;html=1;strokeColor=none;fillColor=none;align=center;verticalAlign=middle;whiteSpace=wrap;rounded=0;" vertex="1" parent="1">
          <mxGeometry x="537.5" y="381" width="35" height="30" as="geometry" />
        </mxCell>
        <mxCell id="my3dYqXKZGJDG_tUbXVl-19" value="" style="endArrow=classicThin;html=1;rounded=0;endFill=1;dashed=1;strokeWidth=1.5;" edge="1" parent="1">
          <mxGeometry width="50" height="50" relative="1" as="geometry">
            <mxPoint x="187.5" y="480" as="sourcePoint" />
            <mxPoint x="287.5" y="480" as="targetPoint" />
          </mxGeometry>
        </mxCell>
        <mxCell id="my3dYqXKZGJDG_tUbXVl-20" value="" style="endArrow=none;dashed=1;html=1;strokeWidth=1.5;rounded=0;edgeStyle=elbowEdgeStyle;" edge="1" parent="1">
          <mxGeometry width="50" height="50" relative="1" as="geometry">
            <mxPoint x="183.5" y="424" as="sourcePoint" />
            <mxPoint x="197.5" y="480" as="targetPoint" />
            <Array as="points">
              <mxPoint x="197.5" y="450" />
            </Array>
          </mxGeometry>
        </mxCell>
      </root>
    </mxGraphModel>
  </diagram>
</mxfile>
